<svg xmlns="http://www.w3.org/2000/svg" width="60" height="60" viewBox="0 0 60 60">
    <defs>
        <style>
            .cls-1,.cls-4{fill:none}.cls-2{fill:#fff}.cls-3,.cls-5,.cls-7{fill:#3f5b98}.cls-3{font-size:12px;font-family:Futura-Medium,Futura;font-weight:500}.cls-4{stroke:#3f5b98;stroke-miterlimit:10;stroke-width:2px}.cls-6,.cls-7{stroke:none}
        </style>
    </defs>
    <g id="ic_rar" transform="translate(-32 -290)">
        <path id="block" d="M0 0h60v60H0z" class="cls-1" transform="translate(32 290)"/>
        <g id="path" transform="translate(-16.352 201.677)">
            <g id="Path_111" class="cls-2" data-name="Path 111">
                <path d="M42 59H2c-.551 0-1-.449-1-1V2c0-.551.449-1 1-1h22a18.938 18.938 0 0 1 13.435 5.565A18.938 18.938 0 0 1 43 20v38c0 .551-.449 1-1 1z" class="cls-6" transform="translate(56.352 88.323)"/>
                <path d="M2 2v56h40V20c0-4.808-1.872-9.328-5.272-12.728C33.328 3.872 28.808 2 24 2H2m0-2h22c11.046 0 20 8.954 20 20v38a2 2 0 0 1-2 2H2a2 2 0 0 1-2-2V2a2 2 0 0 1 2-2z" class="cls-7" transform="translate(56.352 88.323)"/>
            </g>
            <text id="RAR" class="cls-3" transform="translate(72.575 142.462)">
                <tspan x="0" y="0">RAR</tspan>
            </text>
            <path id="Path_104" d="M85.009 88.633v15.78h15" class="cls-4" data-name="Path 104" transform="translate(-1 1)"/>
            <path id="Rectangle_191" d="M0 0h2v2H0z" class="cls-5" data-name="Rectangle 191" transform="translate(62.67 94.323)"/>
            <path id="Rectangle_192" d="M0 0h2v2H0z" class="cls-5" data-name="Rectangle 192" transform="translate(66.67 96.323)"/>
            <path id="Rectangle_193" d="M0 0h2v2H0z" class="cls-5" data-name="Rectangle 193" transform="translate(62.67 98.323)"/>
            <path id="Rectangle_194" d="M0 0h2v2H0z" class="cls-5" data-name="Rectangle 194" transform="translate(66.67 100.323)"/>
            <path id="Rectangle_195" d="M0 0h2v2H0z" class="cls-5" data-name="Rectangle 195" transform="translate(62.67 102.323)"/>
            <path id="Rectangle_196" d="M0 0h2v2H0z" class="cls-5" data-name="Rectangle 196" transform="translate(66.67 104.323)"/>
            <path id="Rectangle_197" d="M0 0h2v2H0z" class="cls-5" data-name="Rectangle 197" transform="translate(62.67 106.323)"/>
            <path id="Rectangle_198" d="M0 0h2v2H0z" class="cls-5" data-name="Rectangle 198" transform="translate(66.67 108.323)"/>
            <path id="Rectangle_199" d="M0 0h2v2H0z" class="cls-5" data-name="Rectangle 199" transform="translate(62.67 110.323)"/>
            <path id="Rectangle_200" d="M0 0h2v2H0z" class="cls-5" data-name="Rectangle 200" transform="translate(66.67 112.323)"/>
            <path id="Rectangle_201" d="M0 0h4v4H0z" class="cls-5" data-name="Rectangle 201" transform="rotate(90 -10.327 77.997)"/>
            <path id="Rectangle_202" d="M0 0h2v22H0z" class="cls-5" data-name="Rectangle 202" transform="translate(64.67 92.323)"/>
        </g>
    </g>
</svg>
