<svg xmlns="http://www.w3.org/2000/svg" id="ic_service" width="28" height="28" viewBox="0 0 28 28">
    <defs>
        <style>
            .cls-1{fill:none}.cls-2{fill:#3f5b98}.cls-3{fill:#fafafa}
        </style>
    </defs>
    <path id="Path_125" d="M0 0h28v28H0z" class="cls-1" data-name="Path 125"/>
    <path id="Path_126" d="M22.575 11.55A8.917 8.917 0 0 0 14 4a8.7 8.7 0 0 0-7.758 5.05A7.323 7.323 0 0 0 0 16.5 7.269 7.269 0 0 0 7 24h15.167A6.055 6.055 0 0 0 28 17.75a6.056 6.056 0 0 0-5.425-6.2z" class="cls-2" data-name="Path 126"/>
    <g id="baseline-build-24px" transform="translate(7.502 8.377)">
        <path id="Path_127" d="M0 0h14v14H0z" class="cls-1" data-name="Path 127"/>
        <path id="Path_128" d="M13.409 11.338L8.2 6.133a3.667 3.667 0 0 0-.859-3.946A3.79 3.79 0 0 0 3.1 1.443L5.563 3.9 3.845 5.618l-2.52-2.459a3.682 3.682 0 0 0 .745 4.232 3.679 3.679 0 0 0 3.952.858l5.212 5.2a.554.554 0 0 0 .8 0l1.317-1.315a.515.515 0 0 0 .058-.796z" class="cls-3" data-name="Path 128" transform="translate(-.285 -.328)"/>
    </g>
</svg>
