<svg xmlns="http://www.w3.org/2000/svg" id="ic_verify" width="28" height="28" viewBox="0 0 28 28">
    <defs>
        <style>
            .cls-1,.cls-3{fill:none}.cls-2{fill:#3f5b98}.cls-3{stroke:#fff;stroke-width:2px}
        </style>
    </defs>
    <path id="Path_129" d="M0 0h28v28H0z" class="cls-1" data-name="Path 129"/>
    <path id="Path_130" d="M23.01 15.17a9.7 9.7 0 0 0 .076-1.17 7.33 7.33 0 0 0-.091-1.17l2.559-1.98a.616.616 0 0 0 .151-.765L23.283 5.93a.618.618 0 0 0-.742-.27l-3.013 1.2a8.893 8.893 0 0 0-2.044-1.17l-.454-3.18a.6.6 0 0 0-.607-.51h-4.846a.588.588 0 0 0-.591.51l-.454 3.18a9.131 9.131 0 0 0-2.044 1.17l-3.013-1.2a.6.6 0 0 0-.742.27L2.31 10.085a.578.578 0 0 0 .151.765l2.559 1.98a7 7 0 0 0-.015 2.34l-2.559 1.98a.616.616 0 0 0-.151.765l2.422 4.155a.618.618 0 0 0 .742.27l3.013-1.2a8.893 8.893 0 0 0 2.044 1.17l.454 3.18a.614.614 0 0 0 .606.51h4.846a.577.577 0 0 0 .591-.51l.454-3.18a9.131 9.131 0 0 0 2.044-1.17l3.013 1.2a.6.6 0 0 0 .742-.27l2.423-4.155a.578.578 0 0 0-.151-.765l-2.528-1.98z" class="cls-2" data-name="Path 130"/>
    <path id="Path_131" d="M9.968 14.19l2.761 2.874 5.125-6.383" class="cls-3" data-name="Path 131" transform="translate(0 -.371)"/>
</svg>
