<svg xmlns="http://www.w3.org/2000/svg" width="108.333" height="96.476" viewBox="0 0 108.333 96.476">
    <defs>
        <style>
            .cls-1{fill:#fff}
        </style>
    </defs>
    <g id="Logo" transform="translate(-126 -122)">
        <path id="Path_81" d="M55.988 58.638c-14.807 48.775 31.526 25.423 31.526 25.423l-.033.085.054-.085 10.659 37.706L78.4 99.549l-12.979 2.959a15.161 15.161 0 0 1-6.749-.167c-27.227-8.086-2.684-43.703-2.684-43.703z" class="cls-1" data-name="Path 81" transform="translate(80.167 63.362)"/>
        <path id="Path_82" d="M144.012 58.638c14.807 48.775-31.526 25.423-31.526 25.423l.033.085-.054-.085-10.659 37.706 19.8-22.218 12.979 2.959a15.161 15.161 0 0 0 6.749-.167c27.221-8.086 2.678-43.703 2.678-43.703z" class="cls-1" data-name="Path 82" transform="translate(80.167 63.362)"/>
        <path id="Path_83" d="M93.469 82.225h13.062L100 110.376z" class="cls-1" data-name="Path 83" transform="translate(80.167 63.362)"/>
        <g id="Group_286" data-name="Group 286" transform="translate(80.167 63.362)">
            <path id="Path_84" d="M61.2 152.046h9.165v2.709H56.46l9.375-16.387h-7.842v-2.709h12.579z" class="cls-1" data-name="Path 84"/>
            <path id="Path_85" d="M79.647 135.659v11.5a6.33 6.33 0 0 0 .8 3.6 4.3 4.3 0 0 0 6.766 0 6.219 6.219 0 0 0 .8-3.6v-11.5H90.9v12.294a6.881 6.881 0 0 1-1.88 4.972 7.273 7.273 0 0 1-10.378 0 6.881 6.881 0 0 1-1.88-4.972v-12.294z" class="cls-1" data-name="Path 85"/>
            <path id="Path_86" d="M101.4 135.659v19.1h-2.882v-19.1z" class="cls-1" data-name="Path 86"/>
            <path id="Path_87" d="M118.849 144.811h7.891v.631a13 13 0 0 1-.507 3.809 8.089 8.089 0 0 1-1.669 2.87 8.652 8.652 0 0 1-6.766 2.993 9.3 9.3 0 0 1-6.864-2.894 9.968 9.968 0 0 1 11.305-16.02 12.062 12.062 0 0 1 3.648 2.968l-2.054 1.967a6.967 6.967 0 0 0-5.726-3.13 6.842 6.842 0 0 0-5.083 2.091 6.977 6.977 0 0 0-2.053 5.145 7.174 7.174 0 0 0 6.926 7.173 5.757 5.757 0 0 0 3.822-1.434 5.107 5.107 0 0 0 1.892-3.463h-4.762z" class="cls-1" data-name="Path 87"/>
            <path id="Path_88" d="M136.285 135.659v11.5a6.33 6.33 0 0 0 .8 3.6 4.3 4.3 0 0 0 6.766 0 6.219 6.219 0 0 0 .8-3.6v-11.5h2.882v12.294a6.876 6.876 0 0 1-1.88 4.972 7.271 7.271 0 0 1-10.377 0 6.884 6.884 0 0 1-1.879-4.972v-12.294z" class="cls-1" data-name="Path 88"/>
        </g>
    </g>
</svg>
